<svg width="177" height="159" viewBox="0 0 177 159" fill="none" xmlns="http://www.w3.org/2000/svg">
<rect width="177" height="159" rx="37" fill="#2A0118"/>
<path d="M67.984 43.672C69.2 43.672 69.968 43.704 70.288 43.768C70.288 47.096 69.872 50.008 69.04 52.504C68.784 59.416 68.464 69.272 68.08 82.072C67.76 94.808 67.536 103.224 67.408 107.32C71.184 107.832 74 108.376 75.856 108.952V113.56C71.824 115.288 66.288 116.152 59.248 116.152C58.864 115.448 58.352 113.72 57.712 110.968C51.824 114.168 47.568 115.896 44.944 116.152C38.416 116.152 33.52 113.784 30.256 109.048C27.056 104.312 25.456 98.232 25.456 90.808C25.456 83.32 27.088 77.048 30.352 71.992C33.616 66.872 38.448 64.312 44.848 64.312C48.368 64.312 52.08 65.4 55.984 67.576L55.504 53.56C52.496 53.24 49.968 52.76 47.92 52.12C47.92 50.52 48.144 48.216 48.592 45.208C52.368 44.184 58.832 43.672 67.984 43.672ZM46.384 73.72C40.88 73.72 38.128 79.032 38.128 89.656C38.128 95.736 39.216 100.312 41.392 103.384C42.608 105.176 44.176 106.072 46.096 106.072C49.36 106.072 53.04 104.952 57.136 102.712L56.272 77.944C52.624 75.128 49.328 73.72 46.384 73.72ZM94.3293 102.808C94.9053 105.112 95.1933 107.096 95.1933 108.76C95.1933 110.36 95.0973 112.184 94.9053 114.232C92.7293 114.808 90.6493 115.096 88.6653 115.096C86.6813 115.096 84.5053 115 82.1373 114.808C81.4973 112.248 81.1773 110.392 81.1773 109.24C81.1773 108.024 81.3053 106.072 81.5613 103.384C83.6733 102.808 85.6893 102.52 87.6093 102.52C89.5933 102.52 91.8333 102.616 94.3293 102.808Z" fill="white"/>
<g clip-path="url(#clip0_1_7)">
<path d="M143.312 51.5114C140.075 51.5617 136.908 52.4655 134.132 54.1313C131.356 55.7971 129.068 58.166 127.5 60.9989C125.932 58.166 123.644 55.7971 120.868 54.1313C118.092 52.4655 114.925 51.5617 111.687 51.5114C106.527 51.7356 101.664 53.9932 98.1629 57.791C94.6613 61.5889 92.8052 66.6181 93 71.7801C93 84.8527 106.76 99.13 118.3 108.81C120.877 110.975 124.134 112.162 127.5 112.162C130.866 112.162 134.123 110.975 136.7 108.81C148.24 99.13 162 84.8527 162 71.7801C162.195 66.6181 160.339 61.5889 156.837 57.791C153.336 53.9932 148.473 51.7356 143.312 51.5114Z" fill="#DE41C5"/>
</g>
<defs>
<clipPath id="clip0_1_7">
<rect width="69" height="69" fill="white" transform="translate(93 46)"/>
</clipPath>
</defs>
</svg>
